# xmcd
#
# Track frame offsets: 
#        150
#        15513
#        30744
#        37908
#        61068
#        78017
#        96700
#        116120
#        132471
#        149794
#        169032
#        174210
#        197384
#        215164
#        234427
#
# Disc length: 3419 seconds
#
# Revision: 0
# Processed by: cddbd v1.4PL0 Copyright (c) Steve Scherf et al.
# Submitted via: ExactAudioCopy v0.90b4
#
DISCID=cb0d590f
DTITLE=Re-Play - Re-Play
DYEAR=1998
DGENRE=R&B
TTITLE0=Kijk Om Je Heen
TTITLE1=Voor Jou
TTITLE2=Alleen Zijn (Interlude)
TTITLE3=Even Alleen Zijn
TTITLE4=Ala Day (Ik Leef Alleen Voor Jou)
TTITLE5=Kom Terug
TTITLE6=Ik Denk Aan Jou
TTITLE7=Ga Met Me Mee
TTITLE8=Oeh Aah (Dit Is Wat Je Wil)
TTITLE9=Het Is Niet Te Laat
TTITLE10=Kon Ik Maar Bij Jou Zijn (Interlude)
TTITLE11=Kon Ik Maar Bij Jou Zijn
TTITLE12=Luister Altijd Naar Je Hart
TTITLE13=Kom Terug (rmx)
TTITLE14=Stop Messin' With My Mind
EXTD=
EXTT0=
EXTT1=
EXTT2=
EXTT3=
EXTT4=
EXTT5=
EXTT6=
EXTT7=
EXTT8=
EXTT9=
EXTT10=
EXTT11=
EXTT12=
EXTT13=
EXTT14=
PLAYORDER=
